<?xml version="1.0" encoding="us-ascii" standalone="no"?><svg xmlns="http://www.w3.org/2000/svg" xmlns:xlink="http://www.w3.org/1999/xlink" contentStyleType="text/css" height="523.5px" preserveAspectRatio="none" style="width:361px;height:523px;background:#FFFFFF;" version="1.1" viewBox="0 0 361 523" width="361.5px" zoomAndPan="magnify"><defs/><g><text fill="#000000" font-family="sans-serif" font-size="21" font-weight="bold" lengthAdjust="spacing" textLength="201" x="69.75" y="34.4927">Variante ternaire</text><!--class Professeur--><g id="elem_Professeur"><rect codeLine="3" fill="#F1F1F1" height="72" id="Professeur" rx="3.75" ry="3.75" style="stroke:#181818;stroke-width:0.75;" width="160.5" x="10.5" y="66.4453"/><ellipse cx="33" cy="90.4453" fill="#ADD1B2" rx="16.5" ry="16.5" style="stroke:#181818;stroke-width:1.5;"/><path d="M37.4531,98.9063 Q36.5859,99.3516 35.625,99.5625 Q34.6641,99.7969 33.6094,99.7969 Q29.8594,99.7969 27.8672,97.3359 Q25.8984,94.8516 25.8984,90.1641 Q25.8984,85.4766 27.8672,82.9922 Q29.8594,80.5078 33.6094,80.5078 Q34.6641,80.5078 35.625,80.7422 Q36.6094,80.9766 37.4531,81.4219 L37.4531,85.5 Q36.5156,84.6328 35.625,84.2344 Q34.7344,83.8125 33.7969,83.8125 Q31.7813,83.8125 30.75,85.4297 Q29.7188,87.0234 29.7188,90.1641 Q29.7188,93.3047 30.75,94.9219 Q31.7813,96.5156 33.7969,96.5156 Q34.7344,96.5156 35.625,96.1172 Q36.5156,95.6953 37.4531,94.8281 L37.4531,98.9063 Z " fill="#000000"/><text fill="#000000" font-family="sans-serif" font-size="21" lengthAdjust="spacing" textLength="112.5" x="54" y="97.7153">Professeur</text><line style="stroke:#181818;stroke-width:0.75;" x1="12" x2="169.5" y1="114.4453" y2="114.4453"/><line style="stroke:#181818;stroke-width:0.75;" x1="12" x2="169.5" y1="126.4453" y2="126.4453"/></g><!--class Etudiant--><g id="elem_Etudiant"><rect codeLine="4" fill="#F1F1F1" height="72" id="Etudiant" rx="3.75" ry="3.75" style="stroke:#181818;stroke-width:0.75;" width="133.5" x="217.5" y="253.9453"/><ellipse cx="240" cy="277.9453" fill="#ADD1B2" rx="16.5" ry="16.5" style="stroke:#181818;stroke-width:1.5;"/><path d="M244.4531,286.4063 Q243.5859,286.8516 242.625,287.0625 Q241.6641,287.2969 240.6094,287.2969 Q236.8594,287.2969 234.8672,284.8359 Q232.8984,282.3516 232.8984,277.6641 Q232.8984,272.9766 234.8672,270.4922 Q236.8594,268.0078 240.6094,268.0078 Q241.6641,268.0078 242.625,268.2422 Q243.6094,268.4766 244.4531,268.9219 L244.4531,273 Q243.5156,272.1328 242.625,271.7344 Q241.7344,271.3125 240.7969,271.3125 Q238.7813,271.3125 237.75,272.9297 Q236.7188,274.5234 236.7188,277.6641 Q236.7188,280.8047 237.75,282.4219 Q238.7813,284.0156 240.7969,284.0156 Q241.7344,284.0156 242.625,283.6172 Q243.5156,283.1953 244.4531,282.3281 L244.4531,286.4063 Z " fill="#000000"/><text fill="#000000" font-family="sans-serif" font-size="21" lengthAdjust="spacing" textLength="85.5" x="261" y="285.2153">Etudiant</text><line style="stroke:#181818;stroke-width:0.75;" x1="219" x2="349.5" y1="301.9453" y2="301.9453"/><line style="stroke:#181818;stroke-width:0.75;" x1="219" x2="349.5" y1="313.9453" y2="313.9453"/></g><!--class Discipline--><g id="elem_Discipline"><rect codeLine="5" fill="#F1F1F1" height="72" id="Discipline" rx="3.75" ry="3.75" style="stroke:#181818;stroke-width:0.75;" width="147" x="17.25" y="441.4453"/><ellipse cx="39.75" cy="465.4453" fill="#ADD1B2" rx="16.5" ry="16.5" style="stroke:#181818;stroke-width:1.5;"/><path d="M44.2031,473.9063 Q43.3359,474.3516 42.375,474.5625 Q41.4141,474.7969 40.3594,474.7969 Q36.6094,474.7969 34.6172,472.3359 Q32.6484,469.8516 32.6484,465.1641 Q32.6484,460.4766 34.6172,457.9922 Q36.6094,455.5078 40.3594,455.5078 Q41.4141,455.5078 42.375,455.7422 Q43.3594,455.9766 44.2031,456.4219 L44.2031,460.5 Q43.2656,459.6328 42.375,459.2344 Q41.4844,458.8125 40.5469,458.8125 Q38.5313,458.8125 37.5,460.4297 Q36.4688,462.0234 36.4688,465.1641 Q36.4688,468.3047 37.5,469.9219 Q38.5313,471.5156 40.5469,471.5156 Q41.4844,471.5156 42.375,471.1172 Q43.2656,470.6953 44.2031,469.8281 L44.2031,473.9063 Z " fill="#000000"/><text fill="#000000" font-family="sans-serif" font-size="21" lengthAdjust="spacing" textLength="99" x="60.75" y="472.7153">Discipline</text><line style="stroke:#181818;stroke-width:0.75;" x1="18.75" x2="162.75" y1="489.4453" y2="489.4453"/><line style="stroke:#181818;stroke-width:0.75;" x1="18.75" x2="162.75" y1="501.4453" y2="501.4453"/></g><polygon fill="#F1F1F1" points="90.75,271.9453,108.75,289.9453,90.75,307.9453,72.75,289.9453,90.75,271.9453" style="stroke:#181818;stroke-width:0.75;"/><!--link Professeur to Cours--><g id="link_Professeur_Cours"><path codeLine="9" d="M90.75,139.0753 C90.75,178.6003 90.75,241.1803 90.75,271.2253 " fill="none" id="Professeur-Cours" style="stroke:#181818;stroke-width:1.5;"/><polygon fill="#000000" points="98.25,203.7949,102.6584,190.2273,93.8416,190.2273,98.25,203.7949" style="stroke:#000000;stroke-width:1.5;"/><text fill="#000000" font-family="sans-serif" font-size="19.5" lengthAdjust="spacing" textLength="87" x="111.75" y="203.0457">enseigne</text><text fill="#000000" font-family="sans-serif" font-size="19.5" lengthAdjust="spacing" textLength="10.5" x="79.0359" y="168.2709">*</text></g><!--link Cours to Etudiant--><g id="link_Cours_Etudiant"><path codeLine="10" d="M109.305,289.9453 C133.995,289.9453 178.965,289.9453 217.14,289.9453 " fill="none" id="Cours-Etudiant" style="stroke:#181818;stroke-width:1.5;"/><polygon fill="#000000" points="134.625,272.7949,148.1926,277.2033,148.1926,268.3865,134.625,272.7949" style="stroke:#000000;stroke-width:1.5;"/><text fill="#000000" font-family="sans-serif" font-size="19.5" lengthAdjust="spacing" textLength="34.5" x="155.625" y="279.5457">suit</text><text fill="#000000" font-family="sans-serif" font-size="19.5" lengthAdjust="spacing" textLength="10.5" x="195.1076" y="283.7686">*</text></g><!--link Cours to Discipline--><g id="link_Cours_Discipline"><path codeLine="11" d="M90.75,308.4703 C90.75,338.4403 90.75,401.2003 90.75,440.8153 " fill="none" id="Cours-Discipline" style="stroke:#181818;stroke-width:1.5;"/><polygon fill="#000000" points="98.25,376.2949,93.8416,389.8625,102.6584,389.8625,98.25,376.2949" style="stroke:#000000;stroke-width:1.5;"/><text fill="#000000" font-family="sans-serif" font-size="19.5" lengthAdjust="spacing" textLength="87" x="111.75" y="390.5457">regroupe</text><text fill="#000000" font-family="sans-serif" font-size="19.5" lengthAdjust="spacing" textLength="10.5" x="78.9703" y="424.7692">*</text></g><!--SRC=[HOsn3i8m34HtVuNL4Ib832nHrGNOcTYZS5IMegIoa_ydb497ltTthb8J-15KGgxW2ir156GnT7uwdYccOCPtBI-OeUa6RhKzFvtjl8f5MP9a48qJNqfJ8zfRF1m6vxxSCx91vWoUQ2NiklvFUhOcbSUVM-N-mBDYrj8MzCWR]--></g></svg>